<svg version="1.0" id="Layer_1" xmlns="http://www.w3.org/2000/svg" xmlns:xlink="http://www.w3.org/1999/xlink" viewBox="-6.4 -6.4 76.80 76.80" enable-background="new 0 0 64 64" xml:space="preserve" fill="hsla(0, 0%, 34%, 0.7)" stroke="hsla(0, 0%, 34%, 0.7)"><g id="SVGRepo_bgCarrier" stroke-width="0" transform="translate(20.48,20.48), scale(0.36)"></g><g id="SVGRepo_tracerCarrier" stroke-linecap="round" stroke-linejoin="round" stroke="#ffff" stroke-width="3.84"> <g> <path fill="" d="M36,22c-0.553,0-1.053,0.224-1.414,0.586l-1.879,1.871c-0.391,0.391-1.023,0.391-1.414,0l-1.879-1.871 C29.053,22.224,28.553,22,28,22c-1.104,0-2,0.896-2,2c0,0.553,0.481,1.076,0.844,1.438L32,30.594l5.156-5.156 C37.519,25.076,38,24.553,38,24C38,22.896,37.104,22,36,22z"></path> <path fill="" d="M56,10V4c0-2.148-1.811-4-4-4H12C9.771,0,8,1.813,8,4v6H56z"></path> <path fill="" d="M8,12v49c0,1.238,0.761,2.35,1.915,2.797s2.466,0.14,3.301-0.774L31.013,45c0,0,0.394-0.5,0.987-0.5 s0.989,0.502,0.989,0.502l17.795,18.021c0.58,0.636,1.39,0.978,2.217,0.978c0.363,0,0.731-0.066,1.084-0.203 C55.239,63.35,56,62.238,56,61V12H8z M38.547,26.875l-5.84,5.841c-0.391,0.391-1.023,0.391-1.414,0l-5.855-5.856 C24.713,26.136,24,25.104,24,24c0-2.209,1.791-4,4-4c1.104,0,2.104,0.448,2.828,1.172L32,22.336l1.172-1.164 C33.896,20.448,34.896,20,36,20c2.209,0,4,1.791,4,4C40,25.104,39.271,26.151,38.547,26.875z"></path> </g> </g><g id="SVGRepo_iconCarrier"> <g> <path fill="" d="M36,22c-0.553,0-1.053,0.224-1.414,0.586l-1.879,1.871c-0.391,0.391-1.023,0.391-1.414,0l-1.879-1.871 C29.053,22.224,28.553,22,28,22c-1.104,0-2,0.896-2,2c0,0.553,0.481,1.076,0.844,1.438L32,30.594l5.156-5.156 C37.519,25.076,38,24.553,38,24C38,22.896,37.104,22,36,22z"></path> <path fill="" d="M56,10V4c0-2.148-1.811-4-4-4H12C9.771,0,8,1.813,8,4v6H56z"></path> <path fill="" d="M8,12v49c0,1.238,0.761,2.35,1.915,2.797s2.466,0.14,3.301-0.774L31.013,45c0,0,0.394-0.5,0.987-0.5 s0.989,0.502,0.989,0.502l17.795,18.021c0.58,0.636,1.39,0.978,2.217,0.978c0.363,0,0.731-0.066,1.084-0.203 C55.239,63.35,56,62.238,56,61V12H8z M38.547,26.875l-5.84,5.841c-0.391,0.391-1.023,0.391-1.414,0l-5.855-5.856 C24.713,26.136,24,25.104,24,24c0-2.209,1.791-4,4-4c1.104,0,2.104,0.448,2.828,1.172L32,22.336l1.172-1.164 C33.896,20.448,34.896,20,36,20c2.209,0,4,1.791,4,4C40,25.104,39.271,26.151,38.547,26.875z"></path> </g> </g></svg>